<svg viewBox="0 0 24 24" version="1.1" xmlns="http://www.w3.org/2000/svg" xmlns:xlink="http://www.w3.org/1999/xlink"><title>Icon/24/Collect</title><g id="Icon/24/Collect" stroke="none" stroke-width="1" fill="none" fill-rule="evenodd"><path d="M19.129219,11.9193397 L19.129219,10.8633397 C19.129219,10.4073397 18.810499,10.0252597 18.383299,9.92637967 C18.323779,10.1961397 18.117379,10.4236597 17.831299,10.4966197 L17.236099,10.6223797 C17.215939,10.6991797 17.203459,10.7798197 17.203459,10.8633397 L17.203459,11.9193397 L19.129219,11.9193397 Z M19.6907187,11.9193397 L21.6,11.9193397 L21.6,17.9529397 C21.6,18.3129397 21.3042637,18.6076597 20.9430223,18.6076597 L15.4993551,18.6076597 C15.1381137,18.6076597 14.8423774,18.3129397 14.8423774,17.9529397 L14.8423774,11.9193397 L16.7506953,11.9193397 L16.7506953,10.8633397 C16.7506953,10.8201397 16.7535853,10.7759797 16.7574385,10.7337397 L11.1,11.9318197 L11.1,18.5874997 L6.3,18.5874997 L6.3,13.9170997 L3.82210611,18.2130997 C3.67857285,18.4540597 3.4242589,18.5874997 3.16320178,18.5874997 C3.03026494,18.5874997 2.8973281,18.5538997 2.77498767,18.4809397 C2.41181964,18.2687797 2.29140584,17.8022197 2.50718738,17.4402997 C4.90326151,13.4012597 6.10322519,11.3785397 6.10707843,11.3721397 C6.66001862,10.3228597 7.84489044,10.3017397 7.99516687,10.3017397 C7.99516687,10.3017397 9.81389695,10.2278197 10.6182612,10.0799797 L17.5030408,9.02397967 C17.7746943,8.95485967 18.0492378,9.03933967 18.2341934,9.22365967 C18.2871754,9.27741967 18.3314877,9.33885967 18.3680935,9.40605967 C19.1098426,9.47997967 19.6907187,10.1049397 19.6907187,10.8633397 L19.6907187,11.9193397 Z M8.54904092,9.3 C7.30895141,9.3 6.3,8.29126358 6.3,7.05143831 C6.3,5.80585979 7.30895141,4.8 8.54904092,4.8 C9.79200767,4.8 10.8,5.80585979 10.8,7.05143831 C10.8,8.29126358 9.79200767,9.3 8.54904092,9.3 Z" id="Colour" fill="#FF6600"></path></g></svg>