<svg viewBox="0 0 24 24" version="1.1" xmlns="http://www.w3.org/2000/svg" xmlns:xlink="http://www.w3.org/1999/xlink"><title>Icon/24/Van</title><g id="Icon/24/Van" stroke="none" stroke-width="1" fill="none" fill-rule="evenodd"><path d="M6.5,14 C7.4945,14 8.3,14.8055 8.3,15.8 C8.3,16.7945 7.4945,17.6 6.5,17.6 C5.5055,17.6 4.7,16.7945 4.7,15.8 C4.7,14.8055 5.5055,14 6.5,14 Z M16.4,14 C17.3945,14 18.2,14.8055 18.2,15.8 C18.2,16.7945 17.3945,17.6 16.4,17.6 C15.4055,17.6 14.6,16.7945 14.6,15.8 C14.6,14.8055 15.4055,14 16.4,14 Z M12.8,5.00027 C13.88,5.00027 14.9861,5.68337 15.5,6.72467 L15.5,6.72467 L15.689,6.72467 C18.5753,6.77597 20.9,9.01247 20.9,11.89967 L20.9,11.89967 L20.9,14.43947 C21.2753,14.43947 21.5804,14.74367 21.5804,15.11987 L21.5804,15.11987 L21.573012,15.2203076 C21.5243471,15.5481212 21.2411818,15.80027 20.9,15.80027 L20.9,15.80027 L19.1,15.80027 C19.1,14.30897 17.8913,13.10027 16.4,13.10027 C14.9087,13.10027 13.7,14.30897 13.7,15.80027 L13.7,15.80027 L9.2,15.80027 C9.2,14.30897 7.9913,13.10027 6.5,13.10027 C5.0087,13.10027 3.8,14.30897 3.8,15.80027 C2.81,15.80027 2,14.99027 2,14.00027 L2,14.00027 L2,7.70027 C2,6.21527 3.215,5.00027 4.7,5.00027 L4.7,5.00027 Z M15.5,7.70027 L15.5,10.97357 C15.5,11.45597 15.8753,11.89967 16.4,11.89967 L16.4,11.89967 L20,11.89967 C20,9.51737 17.8832,7.70027 15.5,7.70027 L15.5,7.70027 Z" id="Colour" fill="#FF6600"></path></g></svg>